Inverse Dynamics Generalized Forces																																												
version=1																																												
nRows=24																																												
nColumns=45																																												
inDegrees=no																																												
endheader																																												
time	pelvis_tilt_moment	pelvis_list_moment	pelvis_rotation_moment	pelvis_tx_force	pelvis_ty_force	pelvis_tz_force	hip_flexion_r_moment	hip_adduction_r_moment	hip_rotation_r_moment	hip_flexion_l_moment	hip_adduction_l_moment	hip_rotation_l_moment	lumbar_extension_moment	lumbar_bending_moment	lumbar_rotation_moment	knee_angle_r_moment	knee_adduction_r_moment	knee_angle_r_beta_force	knee_angle_l_moment	knee_adduction_l_moment	knee_angle_l_beta_force	thoracic_extension_moment	thoracic_bending_moment	thoracic_rotation_moment	ankle_angle_r_moment	ankle_angle_l_moment	arm_flex_r_moment	arm_add_r_moment	arm_rot_r_moment	arm_flex_l_moment	arm_add_l_moment	arm_rot_l_moment	subtalar_angle_r_moment	subtalar_angle_l_moment	elbow_flex_r_moment	elbow_flex_l_moment	mtp_angle_r_moment	mtp_angle_l_moment	pro_sup_r_moment	pro_sup_l_moment	wrist_flex_r_moment	wrist_dev_r_moment	wrist_flex_l_moment	wrist_dev_l_moment
0.351214286	0	0	0	0	0	0	0.702421365	-46.36045703	1.786240103	11.57420989	-6.238784321	1.708634704	-2.877579732	-6.14569316	-7.721639964	-3.812514969	0	0	-2.227337512	0	0	0	0	0	-66.96142449	1.553928179	-0.243856331	-0.806223308	-0.138465431	1.084688769	-2.345091791	-0.434116436	5.654147476	-0.522795056	0.762948274	0.53641306	-0.052859458	-0.076630248	0	0	0	0	0	0
0.361857143	0	0	0	0	0	0	1.495375958	-44.79177125	1.093812952	11.89006997	-5.897396345	1.458224604	-3.382602958	-6.469840812	-8.296840374	-2.23579187	0	0	-1.690408923	0	0	0	0	0	-66.42507836	1.921798282	-0.1865312	-0.876143759	-0.156874417	1.49602547	-2.30076534	-0.447238852	5.223993887	-0.60705434	0.757707775	0.600828595	-0.052813222	-0.093972235	0	0	0	0	0	0
0.3725	0	0	0	0	0	0	2.281012832	-43.67441156	0.488269327	11.47571714	-5.145608095	1.04079338	-3.912731375	-6.752401535	-8.696500584	-0.789027496	0	0	-0.708843011	0	0	0	0	0	-66.27160327	2.297507098	-0.144213724	-0.955557584	-0.175248353	1.885168042	-2.274797799	-0.459147243	4.851253727	-0.680791647	0.747019113	0.665392848	-0.052321355	-0.110094912	0	0	0	0	0	0
0.383142857	0	0	0	0	0	0	3.213767676	-42.93662923	-0.054192084	10.00143432	-4.079870224	0.578375431	-4.303913107	-6.902972141	-8.902100629	0.520783669	0	0	0.840129572	0	0	0	0	0	-66.52171033	2.641110195	-0.129351152	-1.027720528	-0.189463486	2.236117661	-2.260526783	-0.467802676	4.534196488	-0.735009532	0.728236179	0.729087831	-0.051423053	-0.124091221	0	0	0	0	0	0
0.393785714	0	0	0	0	0	0	4.446575186	-42.53843377	-0.549786416	7.126390056	-2.851119888	0.199969655	-4.349683975	-6.868764659	-8.932139032	1.664454793	0	0	3.050321828	0	0	0	0	0	-67.18176636	2.912594225	-0.143660899	-1.085122698	-0.19944113	2.542507299	-2.246279109	-0.470464924	4.264406105	-0.764624951	0.701239524	0.797248701	-0.050192533	-0.135058823	0	0	0	0	0	0
0.404428571	0	0	0	0	0	0	6.109413127	-42.48612647	-1.007136233	2.586306552	-1.629139981	0.010414417	-3.852859308	-6.667054453	-8.83763541	2.60450565	0	0	5.952765561	0	0	0	0	0	-68.252867	3.090036152	-0.181078469	-1.12981387	-0.208945203	2.803910878	-2.22117284	-0.464492579	4.028437396	-0.771776724	0.667890859	0.878055135	-0.04876888	-0.141971963	0	0	0	0	0	0
0.415071428	0	0	0	0	0	0	8.271625622	-42.81738763	-1.429657545	-3.705801181	-0.550456453	0.066835374	-2.692575021	-6.393938533	-8.67925652	3.322046285	0	0	9.500040366	0	0	0	0	0	-69.74555224	3.163649099	-0.233266932	-1.169851285	-0.222986233	3.021668153	-2.181196951	-0.448862963	3.810899331	-0.761844094	0.63131116	0.97726298	-0.047386238	-0.143660968	0	0	0	0	0	0
0.425714286	0	0	0	0	0	0	10.90561299	-43.56383811	-1.822134036	-11.57172921	0.321620142	0.367028479	-0.888387943	-6.195521853	-8.492953707	3.85016849	0	0	13.56037698	0	0	0	0	0	-71.70400981	3.133856304	-0.292694523	-1.213980278	-0.2442068	3.196903736	-2.131478505	-0.425464457	3.595161687	-0.741340641	0.595651977	1.094092665	-0.046385725	-0.138917412	0	0	0	0	0	0
0.436357143	0	0	0	0	0	0	13.90509488	-44.71318775	-2.189606016	-20.53325376	1.016277222	0.857081306	1.377452903	-6.210299723	-8.263157621	4.248591487	0	0	17.93885875	0	0	0	0	0	-74.17166291	2.988020442	-0.352307946	-1.266032517	-0.270166937	3.329166777	-2.083097292	-0.398883241	3.364231192	-0.710771327	0.565960684	1.220100145	-0.04618152	-0.126727341	0	0	0	0	0	0
0.447	0	0	0	0	0	0	17.12403045	-46.18572306	-2.536425681	-29.83654047	1.629427159	1.454154309	3.802642142	-6.513158809	-7.923626149	4.571868244	0	0	22.38738117	0	0	0	0	0	-77.15841013	2.704518392	-0.404703309	-1.321161386	-0.293089269	3.414620431	-2.047022485	-0.374569462	3.100948661	-0.664626056	0.547232919	1.341189655	-0.04716803	-0.106609592	0	0	0	0	0	0
0.457642857	0	0	0	0	0	0	20.43750617	-47.8452786	-2.859220692	-38.55648841	2.275926054	2.072985668	6.055720409	-7.091211872	-7.391922643	4.820986817	0	0	26.61832742	0	0	0	0	0	-80.60145152	2.258586405	-0.443354333	-1.366992523	-0.302667472	3.44641005	-2.0291148	-0.356578056	2.789010796	-0.593911037	0.542398596	1.442048125	-0.049582728	-0.078980837	0	0	0	0	0	0
0.468285714	0	0	0	0	0	0	23.76547419	-49.52484964	-3.147639892	-45.76748463	3.024957943	2.644530161	7.871517924	-7.861498444	-6.622106597	4.946539882	0	0	30.3247836	0	0	0	0	0	-84.37601327	1.634135629	-0.465420488	-1.390460674	-0.290934881	3.419198725	-2.028306435	-0.346194045	2.413802175	-0.493709462	0.550226486	1.511427603	-0.053360617	-0.045426853	0	0	0	0	0	0
0.478928571	0	0	0	0	0	0	27.09626165	-51.0619225	-3.382111104	-50.73696656	3.855554536	3.119157178	9.108418951	-8.714315633	-5.646089943	4.840794187	0	0	33.21109484	0	0	0	0	0	-88.29152796	0.842866177	-0.473664017	-1.386249504	-0.25658594	3.334633101	-2.037909756	-0.341932261	1.962939631	-0.370285286	0.564798154	1.54571714	-0.058021766	-0.008752372	0	0	0	0	0	0
0.489571428	0	0	0	0	0	0	30.4742607	-52.32473231	-3.537171893	-53.08654043	4.64539568	3.461396605	9.749400793	-9.551005203	-4.580133666	4.3543766	0	0	35.04010583	0	0	0	0	0	-92.10354329	-0.059134558	-0.475980736	-1.361034787	-0.206228173	3.202653669	-2.049106391	-0.340636396	1.42758583	-0.240857754	0.577287114	1.548905484	-0.062623317	0.027297983	0	0	0	0	0	0
0.500214286	0	0	0	0	0	0	33.94774816	-53.21771304	-3.590400194	-52.86957204	5.201095507	3.645478127	9.86023521	-10.29567372	-3.594610599	3.355099025	0	0	35.67935428	0	0	0	0	0	-95.56117778	-0.953369443	-0.483208511	-1.331143788	-0.152036684	3.038040413	-2.055084936	-0.339034345	0.806310611	-0.131309305	0.57905936	1.529540685	-0.065798052	0.058645441	0	0	0	0	0	0
0.510857143	0	0	0	0	0	0	37.52286233	-53.69169099	-3.522987194	-50.55827898	5.328018558	3.659656391	9.534971662	-10.88656098	-2.862963038	1.764244272	0	0	35.14479877	0	0	0	0	0	-98.43734874	-1.669736252	-0.506516267	-1.315570712	-0.10722949	2.855936322	-2.053678841	-0.335027076	0.110774709	-0.066885166	0.564495844	1.496983427	-0.065903092	0.081645704	0	0	0	0	0	0
0.5215	0	0	0	0	0	0	41.11887309	-53.73299556	-3.321695379	-46.94906627	4.914503511	3.514901798	8.856214327	-11.26544126	-2.510165595	-0.400030958	0	0	33.60066642	0	0	0	0	0	-100.5663557	-1.994681861	-0.554926528	-1.328401095	-0.08153672	2.669207631	-2.047240642	-0.328228182	-0.630011497	-0.066602031	0.532559676	1.458654162	-0.061289697	0.093762015	0	0	0	0	0	0
0.532142857	0	0	0	0	0	0	44.57970355	-53.34443387	-2.978231796	-43.01886473	4.005628927	3.250306087	7.886119808	-11.37540103	-2.578607246	-3.03860478	0	0	31.31673517	0	0	0	0	0	-101.829551	-1.705525253	-0.632810528	-1.374336515	-0.078662411	2.487299712	-2.040428805	-0.319686541	-1.371239642	-0.135333159	0.486931391	1.418659729	-0.050663427	0.093926798	0	0	0	0	0	0
0.542785714	0	0	0	0	0	0	47.70483205	-52.49369902	-2.496745068	-39.74783536	2.824418447	2.92322295	6.688664439	-11.16780552	-3.02356742	-5.981532677	0	0	28.57411486	0	0	0	0	0	-102.1587865	-0.613062496	-0.737289272	-1.44844348	-0.096558799	2.315440469	-2.037494486	-0.311068194	-2.055658774	-0.264895437	0.435151461	1.377712211	-0.033460557	0.082534677	0	0	0	0	0	0
0.553428571	0	0	0	0	0	0	50.31934034	-51.07773485	-1.898224236	-37.92318396	1.731100247	2.591858739	5.365580203	-10.61640747	-3.737863748	-9.052876927	0	0	25.55814113	0	0	0	0	0	-101.4716251	1.361221721	-0.856617395	-1.538823883	-0.129677595	2.154582224	-2.040459381	-0.303797491	-2.622304226	-0.428569896	0.387200503	1.334336812	-0.010151701	0.061171378	0	0	0	0	0	0
0.564071428	0	0	0	0	0	0	52.3223228	-48.92065892	-1.224834697	-37.90637458	1.089255742	2.300762284	4.076206347	-9.732499034	-4.591561905	-12.1202156	0	0	22.24066513	0	0	0	0	0	-99.61193099	4.12552731	-0.971541848	-1.630540482	-0.171568554	2.00323658	-2.048704507	-0.298586984	-3.014822483	-0.577390638	0.35343966	1.287035334	0.017585835	0.032237087	0	0	0	0	0	0
0.574714286	0	0	0	0	0	0	53.69375179	-45.81479136	-0.549404235	-39.40947536	1.075491118	2.084264503	3.019687907	-8.570201968	-5.468778699	-15.0836077	0	0	18.30466641	0	0	0	0	0	-96.37312862	7.383015961	-1.060445139	-1.709453007	-0.216525272	1.860849952	-2.059281125	-0.295388046	-3.18859926	-0.634707026	0.342023382	1.236295376	0.046847656	-0.001428989	0	0	0	0	0	0
0.585357143	0	0	0	0	0	0	54.47076448	-41.59269141	0.027505447	-41.61888122	1.472369911	2.002243893	2.386380494	-7.214263803	-6.289277563	-17.85438057	0	0	13.25433586	0	0	0	0	0	-91.52317267	10.66090753	-1.106543981	-1.764973973	-0.259818634	1.730319877	-2.0671266	-0.293541123	-3.114925689	-0.501283836	0.356629032	1.185224815	0.073691164	-0.036881259	0	0	0	0	0	0
0.596	0	0	0	0	0	0	54.72385802	-36.2027847	0.387214216	-43.72840439	1.596138837	2.179395691	2.307793273	-5.753956359	-7.011686361	-20.31427649	0	0	6.735577659	0	0	0	0	0	-84.91312678	13.38078853	-1.104129181	-1.791736684	-0.296930108	1.6173181	-2.065362238	-0.292014391	-2.785652825	-0.07162635	0.395384899	1.138569176	0.093641615	-0.071336503	0	0	0	0	0	0
